# xmcd
#
# Track frame offsets: 
#        182
#        27290
#        42572
#        63447
#        81845
#        100770
#        130945
#        157150
#        183695
#
# Disc length: 2673 seconds
#
# Revision: 3
# Processed by: cddbd v1.4PL0 Copyright (c) Steve Scherf et al.
# Submitted via: ExactAudioCopy v0.95a3
#
DISCID=7b0a6f09
DTITLE=Saga - Silent Running
DYEAR=1982
DGENRE=Rock
TTITLE0=Wind Him Up
TTITLE1=Briefcase
TTITLE2=On The Loose
TTITLE3=How Long
TTITLE4=It's Time
TTITLE5=Don't Be Late
TTITLE6=Humble Stance
TTITLE7=You're Not Alone
TTITLE8=No Regrets
EXTD=Recorded Live In Toronto '82
EXTT0=
EXTT1=
EXTT2=
EXTT3=
EXTT4=
EXTT5=
EXTT6=
EXTT7=
EXTT8=
PLAYORDER=
